<svg width="22" height="19" xmlns="http://www.w3.org/2000/svg">

 <g>
  <title>background</title>
  <rect fill="#ffffff" id="canvas_background" height="21" width="24" y="-1" x="-1"/>
 </g>
 <g>
  <title>Layer 1</title>
  <path stroke="null" id="svg_1" fill="black" d="m20.2991,9.78586c2.2679,-2.24248 2.2679,-5.88373 0,-8.104c-2.268,-2.24248 -5.9505,-2.24248 -8.2185,0l-1.1002,1.11014l-1.10033,-1.08794c-2.26792,-2.26468 -5.9505,-2.26468 -8.19597,-0.0222c-1.10028,1.08793 -1.6841,2.53111 -1.6841,4.0631c0,1.53199 0.60628,2.97517 1.6841,4.0631l9.2963,9.19194l9.3187,-9.21414zm-18.862,-4.0409c0,-1.15454 0.4491,-2.22027 1.27992,-3.01957c0.85328,-0.84371 1.95356,-1.26556 3.05384,-1.26556c1.10028,0 2.20056,0.42185 3.05384,1.26556l2.1557,2.10926l2.1556,-2.13147c1.6841,-1.6652 4.446,-1.6652 6.1077,0c0.8084,0.7993 1.2799,1.86503 1.2799,3.01958c0,1.15454 -0.4491,2.22027 -1.2799,3.01957l-8.2633,8.19277l-8.26338,-8.17057c-0.80837,-0.8215 -1.27992,-1.88723 -1.27992,-3.01957z"/>
  <ellipse id="svg_2" cy="0.575521" cx="3.25" stroke-width="1.5" stroke="#000" fill="#fff"/>
  <path stroke="#000" id="svg_6" d="m10.984823,5.053937c3.882446,-9.351965 19.093999,0 0,12.023955c-19.093999,-12.023955 -3.882446,-21.375921 0,-12.023955z" stroke-opacity="null" stroke-width="1.5" fill="#000000"/>
 </g>
</svg>